Coordinates
version=1
nRows=18
nColumns=22
inDegrees=yes

Units are S.I. units (second, meters, Newtons, ...)
If the header above contains a line with 'inDegrees', this indicates whether rotational values are in degrees (yes) or radians (no).

endheader
time	pelvis_tilt	pelvis_list	pelvis_rotation	pelvis_tx	pelvis_ty	pelvis_tz	hip_flexion_r	hip_adduction_r	hip_rotation_r	knee_angle_r	ankle_angle_r	subtalar_angle_r	hip_flexion_l	hip_adduction_l	hip_rotation_l	knee_angle_l	ankle_angle_l	subtalar_angle_l	lumbar_extension	lumbar_bending	lumbar_rotation
      5.77000000	     -0.09119924	     -0.09069272	    -84.33877278	      0.94127549	      1.00740804	      0.10047725	      0.11702167	      9.16018288	     -2.18121746	    -15.63970251	     12.67316492	     -6.71349400	     20.30325273	     -8.31405327	      0.06849225	    -31.63883917	      8.80538590	     10.50269710	     -3.51649324	     -0.45522668	      1.36462554
      5.78000000	     -0.12894524	     -0.11111233	    -85.22955232	      0.94125131	      1.00662264	      0.10767582	     -0.38165679	      9.16957853	     -1.43354937	    -15.69262397	     12.98185732	     -6.75384807	     20.64684151	     -8.29639055	      0.39976732	    -30.21572412	      8.80696373	     10.72642966	     -3.52815403	     -0.41796585	      1.56343268
      5.79000000	     -0.15456587	     -0.12653256	    -86.13952100	      0.94121801	      1.00580138	      0.11483533	     -0.84375104	      9.15036117	     -0.67130615	    -15.80519734	     13.29713343	     -6.79334935	     20.97314138	     -8.28412392	      0.64679683	    -28.80868288	      8.80602557	     10.97852886	     -3.54332655	     -0.39563759	      1.78259359
      5.80000000	     -0.17279602	     -0.12995253	    -87.06142307	      0.94119198	      1.00493880	      0.12193812	     -1.25865453	      9.10822857	      0.09351351	    -15.97794331	     13.61729922	     -6.83446852	     21.29209640	     -8.27547211	      0.83008571	    -27.41373035	      8.79755373	     11.24882521	     -3.55708141	     -0.38279522	      2.02389071
      5.81000000	     -0.18279076	     -0.11753147	    -87.99537498	      0.94116156	      1.00402983	      0.12899305	     -1.62523231	      9.04595830	      0.86744504	    -16.20437936	     13.94474510	     -6.88062033	     21.60980590	     -8.26946302	      0.95844020	    -26.03775352	      8.77450521	     11.52089579	     -3.56244124	     -0.38225064	      2.27751115
      5.82000000	     -0.18299232	     -0.09884607	    -88.93861178	      0.94113296	      1.00309044	      0.13600903	     -1.95629179	      8.96351181	      1.64439550	    -16.48019852	     14.27069819	     -6.92861751	     21.91450835	     -8.26363574	      1.03864446	    -24.67740610	      8.74908723	     11.81421764	     -3.57156453	     -0.39454213	      2.54957142
      5.83000000	     -0.17930615	     -0.05498574	    -89.85791989	      0.94113720	      1.00208992	      0.14302704	     -2.25249717	      8.87195789	      2.41437772	    -16.76519042	     14.60948800	     -6.98298012	     22.23819154	     -8.25259368	      1.10694636	    -23.34453859	      8.69687638	     12.06725305	     -3.55492836	     -0.41421854	      2.78515492
      5.84000000	     -0.16786418	     -0.02866748	    -90.78756056	      0.94115311	      1.00109679	      0.15004240	     -2.52950752	      8.76060335	      3.12759077	    -17.11635516	     14.91242546	     -7.02300385	     22.51804276	     -8.24363125	      1.13834305	    -22.02710472	      8.69511306	     12.37522268	     -3.56816578	     -0.44308035	      3.07346466
      5.85000000	     -0.15987788	      0.03516836	    -91.65681872	      0.94126347	      1.00002893	      0.15711084	     -2.78478478	      8.65225060	      3.82061202	    -17.42959802	     15.23598859	     -7.06511332	     22.83941550	     -8.21872475	      1.22080207	    -20.74853884	      8.65213316	     12.59271221	     -3.53470584	     -0.46331314	      3.28110647
      5.86000000	     -0.14921179	      0.08693691	    -92.52431045	      0.94137530	      0.99895781	      0.16421888	     -3.03206801	      8.53065958	      4.44475631	    -17.78126533	     15.52386700	     -7.07629716	     23.13084678	     -8.19967588	      1.27856460	    -19.50507098	      8.67099253	     12.83808222	     -3.51948912	     -0.49059889	      3.52180128
      5.87000000	     -0.15230525	      0.16694819	    -93.32883067	      0.94157454	      0.99783209	      0.17138985	     -3.27799618	      8.42274432	      5.04370263	    -18.07978759	     15.82172068	     -7.08526280	     23.45671611	     -8.17551106	      1.39419132	    -18.31278276	      8.64546714	     13.00373081	     -3.47010489	     -0.49510830	      3.68202637
      5.88000000	     -0.16289299	      0.24048567	    -94.12056836	      0.94179396	      0.99670721	      0.17860952	     -3.53025437	      8.31154511	      5.59695658	    -18.38200482	     16.08837097	     -7.05788604	     23.76407961	     -8.16159282	      1.49910100	    -17.16986437	      8.66074425	     13.16862127	     -3.43270900	     -0.49163365	      3.85982422
      5.89000000	     -0.19044916	      0.30843174	    -94.88723885	      0.94202176	      0.99558853	      0.18590094	     -3.80759174	      8.20845587	      6.11687165	    -18.65539014	     16.32928587	     -6.99170907	     24.05824940	     -8.16237111	      1.61493958	    -16.08693882	      8.68507715	     13.32740409	     -3.40109982	     -0.47141351	      4.01963024
      5.90000000	     -0.23728188	      0.36905065	    -95.62423591	      0.94227159	      0.99448364	      0.19328192	     -4.12003165	      8.11264401	      6.61542860	    -18.88891452	     16.54242548	     -6.89005320	     24.33578710	     -8.17610167	      1.75031583	    -15.06651889	      8.71221305	     13.47159854	     -3.37644453	     -0.42971375	      4.15678390
      5.91000000	     -0.30313514	      0.41840810	    -96.33070891	      0.94254190	      0.99340984	      0.20077700	     -4.47283502	      8.02093452	      7.08634861	    -19.08023979	     16.72028274	     -6.75507358	     24.58601342	     -8.19957842	      1.91486057	    -14.10864636	      8.74850603	     13.59914758	     -3.36094941	     -0.36829002	      4.27549475
      5.92000000	     -0.37520562	      0.43716198	    -97.01567998	      0.94281958	      0.99239814	      0.20844217	     -4.88861766	      7.91085195	      7.51606700	    -19.22998221	     16.85438742	     -6.52683054	     24.77797000	     -8.22005334	      2.09688130	    -13.20829389	      8.83780718	     13.73579020	     -3.36647880	     -0.30782895	      4.40204388
      5.93000000	     -0.47503463	      0.47336514	    -97.65466561	      0.94313267	      0.99137874	      0.21622965	     -5.31597016	      7.82161522	      7.93987052	    -19.33885447	     16.95963583	     -6.36688985	     24.97716334	     -8.25106346	      2.35963358	    -12.37995328	      8.85509522	     13.82172237	     -3.34699058	     -0.21343248	      4.47885646
      5.94000000	     -0.57736880	      0.47862676	    -98.28633006	      0.94343911	      0.99044449	      0.22422542	     -5.80401382	      7.70838133	      8.34964835	    -19.41365416	     17.01400622	     -6.12355952	     25.10592148	     -8.27849778	      2.62771976	    -11.60742342	      8.91409361	     13.90843829	     -3.34345250	     -0.12415105	      4.58086658
